<svg xmlns="http://www.w3.org/2000/svg" xmlns:xlink="http://www.w3.org/1999/xlink" width="5760" zoomAndPan="magnify" viewBox="0 0 4320 809.999975" height="1079" preserveAspectRatio="xMidYMid meet" version="1.0"><defs><g/></defs><g fill="#ffffff" fill-opacity="1"><g transform="translate(440.835623, 494.12246)"><g><path d="M 107.429688 0 C 107.429688 -6.675781 111.070312 -128.066406 111.070312 -157.804688 C 111.679688 -157.804688 112.285156 -158.414062 112.890625 -158.414062 C 112.890625 -156.59375 156.59375 -176.621094 176.621094 -184.511719 L 257.34375 -234.886719 L 262.199219 -272.519531 L 268.269531 -291.941406 C 260.988281 -316.824219 254.308594 -341.101562 249.453125 -366.59375 C 210.609375 -382.375 162.660156 -403.617188 151.734375 -409.6875 L 111.679688 -407.867188 L 18.816406 -404.832031 C 18.207031 -361.132812 18.207031 -317.433594 18.207031 -273.125 C 18.816406 -206.96875 20.027344 -77.082031 21.242188 -10.925781 C 24.882812 -10.925781 27.917969 -9.710938 30.953125 -9.105469 L 47.339844 -4.25 L 92.863281 -1.214844 C 97.71875 -0.605469 102.574219 0 107.429688 0 Z M 109.25 -226.390625 C 108.035156 -236.707031 106.824219 -327.75 106.824219 -339.890625 C 132.3125 -338.675781 157.804688 -336.246094 182.691406 -332 C 182.691406 -330.179688 186.332031 -291.332031 186.332031 -257.953125 L 139.597656 -237.921875 Z M 109.25 -226.390625 "/></g></g></g><g fill="#ffffff" fill-opacity="1"><g transform="translate(709.104798, 494.12246)"><g><path d="M 27.917969 27.3125 C 56.445312 23.0625 87.398438 16.996094 117.140625 3.640625 L 137.167969 -162.054688 C 159.625 -191.1875 184.511719 -235.496094 200.292969 -242.777344 L 267.054688 -194.222656 L 289.511719 -265.84375 L 217.894531 -337.460938 C 177.226562 -321.074219 149.308594 -298.617188 126.246094 -274.339844 L 123.816406 -359.3125 L 23.0625 -330.179688 C 10.316406 -233.671875 26.097656 -125.636719 27.917969 27.3125 Z M 27.917969 27.3125 "/></g></g></g><g fill="#ffffff" fill-opacity="1"><g transform="translate(1016.825418, 494.12246)"><g><path d="M 57.660156 0 L 187.546875 -2.429688 L 235.496094 -52.804688 L 241.5625 -247.632812 L 208.789062 -285.871094 L 54.625 -271.910156 L 19.421875 -227.605469 C 16.996094 -170.550781 18.207031 -107.429688 21.242188 -39.453125 Z M 172.980469 -88.613281 L 97.71875 -101.359375 L 100.753906 -208.183594 L 164.480469 -214.25 Z M 172.980469 -88.613281 "/></g></g></g><g fill="#ffffff" fill-opacity="1"><g transform="translate(1276.597402, 494.12246)"><g><path d="M 108.035156 -331.390625 L 106.214844 -403.011719 L 31.5625 -381.769531 L 37.023438 -316.824219 Z M 166.304688 -75.867188 L 309.542969 -193.007812 L 299.222656 -241.5625 L 220.320312 -200.898438 L 151.128906 -151.734375 C 138.382812 -198.472656 122.601562 -250.0625 111.679688 -303.472656 L 44.308594 -283.441406 L 56.445312 -77.6875 C 23.0625 -37.023438 -10.316406 5.460938 -39.453125 58.875 C -54.625 121.996094 -60.085938 183.296875 -47.339844 240.957031 C -29.132812 262.199219 -7.285156 278.585938 17.601562 290.726562 C 68.585938 267.664062 124.421875 225.785156 144.453125 170.550781 C 152.949219 92.863281 174.191406 49.769531 166.910156 -31.5625 C 168.730469 -45.519531 168.125 -60.085938 166.304688 -75.867188 Z M 30.347656 210.003906 L 6.070312 184.511719 C 6.675781 147.488281 13.351562 114.105469 24.882812 83.757812 L 63.730469 40.058594 L 63.121094 178.441406 Z M 30.347656 210.003906 "/></g></g></g><g fill="#ffffff" fill-opacity="1"><g transform="translate(1604.3471, 494.12246)"><g><path d="M 209.394531 -105.609375 L 108.035156 -73.441406 C 104.394531 -78.296875 101.359375 -84.972656 98.933594 -92.253906 C 125.636719 -101.964844 205.753906 -135.957031 231.851562 -157.804688 C 233.671875 -161.449219 239.136719 -235.496094 231.851562 -250.0625 L 210.609375 -266.449219 C 188.152344 -277.980469 166.304688 -285.265625 145.058594 -290.121094 C 111.679688 -282.835938 83.757812 -269.484375 61.300781 -251.273438 C 37.023438 -220.320312 23.0625 -183.90625 18.207031 -142.632812 C 22.457031 -97.71875 29.742188 -58.265625 44.308594 -30.347656 C 71.621094 -13.351562 96.503906 -1.820312 116.535156 0 C 116.535156 0 233.671875 -49.164062 239.136719 -71.011719 Z M 166.304688 -198.472656 C 176.015625 -199.683594 185.726562 -197.863281 193.007812 -193.007812 C 165.089844 -174.191406 113.5 -140.203125 93.46875 -129.886719 C 94.078125 -148.09375 98.933594 -166.304688 109.855469 -179.046875 C 109.855469 -179.046875 139.597656 -196.648438 166.304688 -198.472656 Z M 166.304688 -198.472656 "/></g></g></g><g fill="#ffffff" fill-opacity="1"><g transform="translate(1861.691289, 494.12246)"><g><path d="M 116.535156 0 C 116.535156 0 189.972656 -29.742188 195.4375 -51.589844 L 166.304688 -86.1875 L 108.035156 -73.441406 C 98.324219 -86.1875 93.46875 -107.429688 94.078125 -137.167969 C 94.078125 -137.167969 99.539062 -160.839844 109.855469 -179.046875 C 109.855469 -179.046875 165.695312 -208.183594 193.007812 -193.007812 C 199.683594 -202.113281 229.425781 -240.351562 231.851562 -250.0625 L 210.609375 -266.449219 C 188.152344 -277.980469 166.304688 -285.265625 145.058594 -290.121094 C 111.679688 -282.835938 83.757812 -269.484375 61.300781 -251.273438 C 37.023438 -220.320312 23.0625 -183.90625 18.207031 -142.632812 C 22.457031 -97.71875 29.742188 -58.265625 44.308594 -30.347656 C 71.621094 -13.351562 96.503906 -1.820312 116.535156 0 Z M 116.535156 0 "/></g></g></g><g fill="#ffffff" fill-opacity="1"><g transform="translate(2111.752183, 494.12246)"><g><path d="M 324.109375 -237.316406 L 305.898438 -330.785156 L 197.257812 -324.109375 L 197.863281 -353.242188 L 201.503906 -481.914062 L 99.539062 -451.566406 L 95.898438 -318.039062 L 18.207031 -313.183594 L 18.816406 -233.066406 L 93.46875 -234.28125 L 91.042969 -154.164062 L 116.535156 101.359375 L 186.332031 74.652344 L 194.828125 -235.496094 Z M 324.109375 -237.316406 "/></g></g></g><g fill="#ffffff" fill-opacity="1"><g transform="translate(2454.068568, 494.12246)"><g/></g></g><g fill="#ffffff" fill-opacity="1"><g transform="translate(2636.151748, 494.12246)"><g><path d="M 103.789062 -2.429688 C 108.644531 -34.597656 121.390625 -86.1875 128.066406 -92.863281 C 142.023438 -95.289062 209.394531 -103.789062 214.859375 -105 L 223.960938 -83.152344 C 252.488281 -24.882812 228.816406 -68.585938 264.019531 -9.105469 C 294.367188 -15.171875 298.617188 -18.816406 328.355469 -27.3125 C 329.570312 -27.917969 330.179688 -27.917969 330.785156 -27.917969 C 329.570312 -32.773438 327.75 -38.238281 314.398438 -75.261719 C 302.257812 -112.285156 291.332031 -139.597656 268.269531 -194.828125 C 247.632812 -241.5625 197.257812 -348.992188 188.152344 -375.09375 C 135.347656 -370.238281 125.03125 -369.628906 115.925781 -367.808594 L 89.828125 -364.167969 C 81.332031 -331.390625 54.625 -220.929688 50.984375 -198.472656 C 46.128906 -173.585938 26.707031 -52.804688 18.207031 -7.285156 L 27.917969 -7.285156 C 53.410156 -6.675781 78.296875 -4.855469 103.789062 -2.429688 Z M 138.992188 -150.523438 L 159.019531 -266.449219 C 166.304688 -228.210938 183.90625 -182.691406 193.007812 -159.019531 L 148.703125 -152.34375 Z M 138.992188 -150.523438 "/></g></g></g><g fill="#ffffff" fill-opacity="1"><g transform="translate(2985.14452, 494.12246)"><g><path d="M 242.777344 13.351562 C 247.027344 -82.542969 242.171875 11.53125 248.242188 -80.722656 L 250.0625 -92.863281 C 249.453125 -92.863281 248.242188 -92.863281 247.632812 -92.253906 L 238.53125 -90.433594 L 234.28125 -89.222656 L 231.246094 -89.222656 C 224.570312 -88.613281 217.894531 -88.007812 211.21875 -88.007812 C 196.648438 -88.007812 143.238281 -91.648438 125.03125 -91.648438 C 125.636719 -111.679688 125.636719 -168.730469 125.636719 -177.226562 C 125.636719 -197.863281 125.03125 -218.5 123.210938 -238.53125 C 123.816406 -262.199219 126.851562 -322.289062 126.851562 -329.570312 C 128.066406 -336.855469 128.066406 -348.386719 128.671875 -364.167969 C 109.25 -364.167969 32.167969 -362.347656 18.207031 -362.347656 C 18.207031 -140.8125 22.457031 -322.289062 22.457031 -92.863281 C 21.851562 -70.40625 20.636719 -21.242188 18.207031 1.214844 C 33.382812 0.605469 47.949219 0 62.515625 0 C 128.671875 0 168.730469 8.496094 226.996094 12.746094 C 232.460938 13.351562 237.921875 13.351562 242.777344 13.351562 Z M 242.777344 13.351562 "/></g></g></g><g fill="#ffffff" fill-opacity="1"><g transform="translate(3253.413785, 494.12246)"><g><path d="M 103.789062 -2.429688 C 108.644531 -34.597656 121.390625 -86.1875 128.066406 -92.863281 C 142.023438 -95.289062 209.394531 -103.789062 214.859375 -105 L 223.960938 -83.152344 C 252.488281 -24.882812 228.816406 -68.585938 264.019531 -9.105469 C 294.367188 -15.171875 298.617188 -18.816406 328.355469 -27.3125 C 329.570312 -27.917969 330.179688 -27.917969 330.785156 -27.917969 C 329.570312 -32.773438 327.75 -38.238281 314.398438 -75.261719 C 302.257812 -112.285156 291.332031 -139.597656 268.269531 -194.828125 C 247.632812 -241.5625 197.257812 -348.992188 188.152344 -375.09375 C 135.347656 -370.238281 125.03125 -369.628906 115.925781 -367.808594 L 89.828125 -364.167969 C 81.332031 -331.390625 54.625 -220.929688 50.984375 -198.472656 C 46.128906 -173.585938 26.707031 -52.804688 18.207031 -7.285156 L 27.917969 -7.285156 C 53.410156 -6.675781 78.296875 -4.855469 103.789062 -2.429688 Z M 138.992188 -150.523438 L 159.019531 -266.449219 C 166.304688 -228.210938 183.90625 -182.691406 193.007812 -159.019531 L 148.703125 -152.34375 Z M 138.992188 -150.523438 "/></g></g></g><g fill="#ffffff" fill-opacity="1"><g transform="translate(3602.406557, 494.12246)"><g><path d="M 146.273438 0 C 166.910156 -10.316406 212.429688 -26.707031 231.851562 -38.238281 C 240.351562 -80.722656 248.242188 -123.210938 258.558594 -165.089844 L 248.847656 -170.550781 C 209.394531 -196.042969 143.847656 -245.8125 134.742188 -251.273438 C 140.203125 -266.449219 151.734375 -298.011719 155.984375 -315.613281 C 236.707031 -365.988281 225.175781 -359.917969 242.171875 -366.59375 C 237.316406 -387.835938 231.246094 -410.902344 225.175781 -429.109375 L 60.695312 -395.726562 L 53.410156 -347.171875 C 51.589844 -337.460938 44.914062 -296.796875 42.484375 -284.65625 C 40.058594 -269.484375 37.023438 -254.308594 32.167969 -239.742188 L 30.953125 -220.320312 L 31.5625 -219.714844 L 43.699219 -204.539062 L 66.765625 -179.65625 L 132.3125 -117.746094 L 132.921875 -115.320312 L 131.101562 -91.042969 C 122.601562 -89.828125 131.101562 -90.433594 18.207031 -87.398438 C 18.816406 -35.808594 19.421875 -33.988281 19.421875 -29.132812 C 21.851562 -27.917969 24.277344 -27.3125 26.707031 -26.707031 C 48.554688 -21.242188 111.070312 -6.070312 133.527344 -2.429688 Z M 146.273438 0 "/></g></g></g></svg>